# xmcd
#
# Track frame offsets:
#	150
#	15987
#	34089
#	51588
#	73215
#	90990
#	108688
#	124621
#	141336
#	167880
#	185459
#
# Disc length: 2808 seconds
#
# Revision: 755542466
# Processed by: cddbd v1.5.2PL0 Copyright (c) Steve Scherf et al.
# Submitted via: EZCDAudioConverter 8.1.0.1
#
DISCID=9a0af60b
DTITLE=Sam Bush - Storyman
DYEAR=2016
DGENRE=Country
TTITLE0=Play By Your Own Rules
TTITLE1=Everything Is Possible
TTITLE2=Transcendental Meditation Blues
TTITLE3=Greenbrier
TTITLE4=Lefty's Song
TTITLE5=Carcinoma Blues
TTITLE6=Bowling Green
TTITLE7=Handmics Killed Country Music
TTITLE8=Where's My Love
TTITLE9=It's Not What You Think
TTITLE10=I Just Wanna Feel Something
EXTD=
EXTT0=
EXTT1=
EXTT2=
EXTT3=
EXTT4=
EXTT5=
EXTT6=
EXTT7=
EXTT8=
EXTT9=
EXTT10=
PLAYORDER=
